<mxfile host="app.diagrams.net" agent="Mozilla/5.0 (Windows NT 10.0; Win64; x64) AppleWebKit/537.36 (KHTML, like Gecko) Chrome/133.0.0.0 Safari/537.36" version="26.2.13">
  <diagram name="PÃ¡gina-1" id="C-RaaeXObLZiBTZzqlMv">
    <mxGraphModel dx="1160" dy="601" grid="0" gridSize="10" guides="1" tooltips="1" connect="1" arrows="1" fold="1" page="1" pageScale="1" pageWidth="200" pageHeight="250" background="light-dark(#FFFFFF,#FFFFFF)" math="0" shadow="0">
      <root>
        <mxCell id="0" />
        <mxCell id="1" parent="0" />
        <mxCell id="WI5wiZquoF-8McdeKyBL-28" style="edgeStyle=orthogonalEdgeStyle;rounded=0;orthogonalLoop=1;jettySize=auto;html=1;entryX=0;entryY=0.5;entryDx=0;entryDy=0;fillColor=#1ba1e2;strokeColor=#006EAF;" edge="1" parent="1" source="WI5wiZquoF-8McdeKyBL-26" target="WI5wiZquoF-8McdeKyBL-14">
          <mxGeometry relative="1" as="geometry" />
        </mxCell>
        <mxCell id="WI5wiZquoF-8McdeKyBL-26" value="" style="shape=image;verticalLabelPosition=bottom;labelBackgroundColor=default;verticalAlign=top;aspect=fixed;imageAspect=0;image=data:image/png,iVBORw0KGgoAAAANSUhEUgAAATQAAACjCAMAAAAzSxLiAAAAtFBMVEX///90tkcAAABtsztytURqsjZwtEBnsDFvtD76/Pnu7u6tra2+vr77/fns9ef9/vzM47+NjY3d69XD3rOizYenp6fl8d72+vNfX1/Z6s/w9+t7ulGMwmrS5sbX19dWVla4uLiv1JqZyHy01qCOw22Wx3f19fWFhYXq6urIyMgwMDCWlpaGv2K82qqq0ZJ6uU8+Pj54eHhnZ2dMTEwoKChgriNXqggUFBQdHR1vb28PDw82NjYqv1xlAAAHyElEQVR4nO2djXKbOhCFg4Uk4l9qMMRgkgAmtRvASdPetLfv/14XSYCx46SJ7YHc2f2mM3UU00FnVlrprKAXFwiCIAiCIAiCIAiCIAiCIAiCIAiCIIcZuc7ctLJQEBd/LMsyzbnjXk66vrPPiWOGUapRSgkhRgURUMoNf2lnc6/re/xMuPM45ZQYTNdeQ2eMUM6izOn6Zj8FY2thUON1uXYolNPtwO36nrtlZC4IeadgtXCURfOub7w73Nz4qGKVbr4FMzW4OTeOUUyiE8PqugMdEGjHSyahC3DZNONHDcwmjE277kW7xPxUyQp0Dkq14ByaiZlt1HVPWsQ/eWwqjLzrnrSHQ8+jmaZv4Kw8THIm0TQOZ3xOzxVpmnHZdV9aY3TiEq2GJV13pUXCM43Pn6BMj8VZYo3GXfejVUaLM8QaMM0KInriWo1Rs+s+tE+gH+cLKQweAduvqxXpJD5WNp2wfNxxH1rHTFSUjMyUEPbhIKO+VTrebg5ncWtyEpa9HVtL/u4SQTGRGdTIK2/DselPOKIFtJiTwmpOmszDBaXkjVqUHJLMIFxPstoNClLONA5nRyC3UQaJtnbY5dSyRdVT1PF2xdOFWpQyP4mD7TzmxRuZfaGJJusjcXM+d8eBFUbpRkSVIWvGRfT5aRRawbhZtnPNpKphwROtCCOD+/nLOubI87yxM/Y89+WUNc2WfJs8IIomdaPUzy3n76uuiTePl4TuLFMAiTbfs4b0YtZi/jK3gmkRXPu+4mTkOoGVL/wic+6vTwCJdtCEFBM+oZzqfrqIIlsRJcvUZ1xkCP1QdoUuWiNf6myLflCsWjQ467T94Xk8BE6keWcrrKRdd6VFFh/ecB6GQjrQ4ZziCm1hkAKtSAWnWpACwwd2vM/ZnOx30wUwzQpCftLExji4CoFgnNCjZWM8gmbdeuVOaZp8+MStQCdGVBY8HUBnObSqkOTF2gd8WxljhKZbtxvQNiqgdFPX3xzxEMHhneV+hDHCddus/JBRTAwGJ9KmVNPpJquTnxuEy80h27ZSS7q3LLWt7TEEL2ZF/oUlmpqZGs8DjLzACpe+tIko2UKFgeZHsek0FxjzhMiDDdBEE12mer7/HIXrjZ15YFoKM5g64/3l2NzWq7wLUDRNFDFpYr0/B46cLKGNlQpM0eQ4pZtlHIzftsYmrmOGC43uFpcBiRbsb6FUUTNN8sycO45bj0fPdcRYzfJo4R90bwGJ9opzqwxvSnmD8gHQV9IqinYMOhzRznZQWfe77kp7TM4VaWzZdVdaJD6TajzouictMknPUiQgUdcdaRXXP8Pxbmp33Y2WmSQnH1TmWdedaB9TO2Vi0+kCmnUruQzZsZU8nfqQUoDEKbeZbrb5oG8rFSN0UUnmwHFuTV5Xxqdhyv923LYpmEF5mlXerZv/A+cAjEmJZtYbIM+0U/p3w1tnhBpp49ykmxsGoBrBXNjdftYwF90gSzaMkgMvHFJeN9FS25o2rhjnzAB1Pq20u4m9+7YD1zGzMEl1ZW5Q5XeQzcKOrfmu2zYxl+pNKNBE0+Rrg8LpAZ9i5I4V3qGDB24Q1VYkQNE0YXdrtjn+iN291Bt2N0zR1ATvR80nKw4zcsy8EGzX7gYk2iG7u5jB/CSPrWDqOOIBAonneY4zLWY6e6GJ19K9SLCARHvd7pZ+N6nfcCjrnvQNuxtFOwI83X0EBpwagYt29xHYZ3qbCSi729XOY3fDsm7Hp59T1jQKq0RQEJ5qd+sQ7W5neYpsOvFBvduwJvCPlU2nOqQHfHYxU36M3c1TgG/MaeDk/kd0E7v7NANZh9phMo1T9p76il5sRTeRCewVQ6/jzeNEPXTNXmzNxXPGhnhOOw1NDLF9Rk6QhXaS+oxUfjfnnG3SxA7NKQbY20wml6PS7p7gfxSCIAiCIAiCIAjS5G44m90PV9WP/ZK7+vf9F03ye8P72ey6zRv9PPR/9xQ3SoB+r+LbVyXSbd3SexhWl62uVMvzrJvb7pTrrSK9gWjoNxp6Usdhs+VeXbbetnzv7uY7YiVD6n44uKpUE6J9u7m5eZCK9C+UaE83VZPUUUp9Nbh9FH+Di7WbotNf5ScZO3dKNBlO/ccyjIaVVPKT/J2Qby0+XJdXQUL0+ar8PFCKCNG+qJYnFWpb0S7K311vx2lx1Q9g2eDrVg+pyJ8d0dZqxO6KdlteVobXHTDFLmQs/aptWTEcd0QTHx+VaOv+arVai6+LXxSj80c3N/wZ+FFM8fUP94U4q6ZoF2pSa2bPh37ZftPF7X4Onpu9v5fD8G3Rbtbbdqj8eq9oT1cFD9WypNcMUHD8aU5OanpviHZXfPzdTAT9byoDFH89V1cBW28UfJfTWMnzfiIoVxaN7Cny6VCljL5qWfV+r9u+644Z1mtbJcjjjmhqvDZFu1bjc739ztdqmQuIX+XKqwiZZ6XNVjSh0LeLHdEeS4keqstuy++AQjoYj9cXq1lPBZoU7WowGMzkblQoJET7MhBNYovQE5fJ3dPTbFB/BxZfGusJmRF3XA65V9pxOcq4XO99Bxi3/1a9V4OyIdofFUPDl5oVX/uufn6AF2eS4ePTw8P3WZkO72YDRe3lrqqWwW1zo3k3LBpW+/8YgiAIgiAIgiAIgiAIgiAIgiAIgiAIgiDI/57/ACOViZm0BXrRAAAAAElFTkSuQmCC;" vertex="1" parent="1">
          <mxGeometry x="500" y="260" width="92" height="48.69" as="geometry" />
        </mxCell>
        <mxCell id="WI5wiZquoF-8McdeKyBL-24" style="edgeStyle=orthogonalEdgeStyle;rounded=0;orthogonalLoop=1;jettySize=auto;html=1;fillColor=#1ba1e2;strokeColor=#006EAF;" edge="1" parent="1" source="WI5wiZquoF-8McdeKyBL-21" target="WI5wiZquoF-8McdeKyBL-23">
          <mxGeometry relative="1" as="geometry" />
        </mxCell>
        <mxCell id="WI5wiZquoF-8McdeKyBL-21" value="" style="shape=image;verticalLabelPosition=bottom;labelBackgroundColor=default;verticalAlign=top;aspect=fixed;imageAspect=0;image=data:image/jpeg,/9j/4AAQSkZJRgABAQEAYABgAAD/2wBDAAMCAgMCAgMDAwMEAwMEBQgFBQQEBQoHBwYIDAoMDAsKCwsNDhIQDQ4RDgsLEBYQERMUFRUVDA8XGBYUGBIUFRT/2wBDAQMEBAUEBQkFBQkUDQsNFBQUFBQUFBQUFBQUFBQUFBQUFBQUFBQUFBQUFBQUFBQUFBQUFBQUFBQUFBQUFBQUFBT/wAARCABvAJgDASIAAhEBAxEB/8QAHwAAAQUBAQEBAQEAAAAAAAAAAAECAwQFBgcICQoL/8QAtRAAAgEDAwIEAwUFBAQAAAF9AQIDAAQRBRIhMUEGE1FhByJxFDKBkaEII0KxwRVS0fAkM2JyggkKFhcYGRolJicoKSo0NTY3ODk6Q0RFRkdISUpTVFVWV1hZWmNkZWZnaGlqc3R1dnd4eXqDhIWGh4iJipKTlJWWl5iZmqKjpKWmp6ipqrKztLW2t7i5usLDxMXGx8jJytLT1NXW19jZ2uHi4+Tl5ufo6erx8vP09fb3+Pn6/8QAHwEAAwEBAQEBAQEBAQAAAAAAAAECAwQFBgcICQoL/8QAtREAAgECBAQDBAcFBAQAAQJ3AAECAxEEBSExBhJBUQdhcRMiMoEIFEKRobHBCSMzUvAVYnLRChYkNOEl8RcYGRomJygpKjU2Nzg5OkNERUZHSElKU1RVVldYWVpjZGVmZ2hpanN0dXZ3eHl6goOEhYaHiImKkpOUlZaXmJmaoqOkpaanqKmqsrO0tba3uLm6wsPExcbHyMnK0tPU1dbX2Nna4uPk5ebn6Onq8vP09fb3+Pn6/9oADAMBAAIRAxEAPwD9U6KKQnFAC1EetBbmsDxb440DwDp51HxFrNppFln/AFt3KEH4Z6/hQB0Crk5p9eMj9sT4N/8ARQNHH1mo/wCGxPg3/wBFB0f/AL/UAez03dXja/thfBs/81A0k/8Abb/61Nf9r/4Of9FA0kf9tv8A61AHs45pa8XX9sT4NqoH/CwdH/7/AFL/AMNifBv/AKKDo/8A3+oA9norxj/hsT4N/wDRQdH/AO/1Kv7YXwbzx4+0kn2loA9kZsVHgs2c146/7YHwdP8AzUDSR/22/wDrUL+2J8G1AH/Cf6Qf+21AHs46UteV+G/2nPhd4t1SPTtI8b6Td3sxwkK3ABY+gzXqSNuUHIORnI6UAOoqOR8UI2aAJKKKKACo5KkpKAI0XNfmf+0jZ6h+0B+2jbeAL7UZLXSbe4jsYVX5hENu55AvTcfWv01r8pvjd8RovhP+3NrHiyWza/XS9QSY26sFL/uwOtAH0mv/AATH+HW0Z1zXc9/3qf4UN/wTH+HP/Qc13/v6n+Fcav8AwVNsAcf8ILcf+BaU5/8AgqRYMuT4GuB6f6WlAHYx/wDBM34dJ93XNdP/AG0T/Clb/gmT8OpGLNrmu5P/AE0T/CuIT/gqdYjr4Euc+12lSH/gqdYbf+REuv8AwLSgDsv+HY3w5/6Dmu/9/U/wo/4djfDn/oOa7/39T/CuK/4epWA4/wCEEuv/AALSj/h6lp//AEIl1/4FpQB2jf8ABMj4b/8AQa17/v6n+FLH/wAEzPh2vTWtdA/66J/hXFf8PT7A/wDMiXX/AIFpTv8Ah6ZYRru/4QS6x/19pQB2jf8ABMj4dM2Trmu5/wCuqf4Uf8Ox/h1/0Hde/wC/qf4VxP8Aw9T088/8IJdf+BaUf8PUtP8A+hEuv/AtKAOR/ao/Yd8N/BX4Xz+LvD2r6hPNZXEayQ3jA7gxxlSMYIPNfV37FPjjUPiB+zz4fvNUuJLm+t99k00h+ZxGQAT74wPwr47+Pn7dlt8dvhjqHhSLwvPpf2qWNvtTTq4Xac4wK+pf+Ce8YX9m/TNpyPt1zz+IoA+klXdz1qZRgUKMKKWgAooooARTlRS0lLQAV+Z+vabZa1/wUiay1C1ivLSXVFWSCZA6OPLHBU8Gv0uZsV+W/wAVPHWnfDL9vPUfFmp+ZJY6bqSyTJCuXI8sDAFAH6LL8GvAOP8AkS9CP/cNh/8AiaX/AIU34C/6EvQv/BbF/wDE186j/gpj8M8cadrJH/XAf40f8PMfhn/0DdZ/8Bx/jQB9FH4P+BVRseDdBHB/5hsP/wATX56fsK+FNE1/9pLxvYalpNjqFnCt35dvdW6yImLhgMBhgYFe/N/wUw+Gjbh9g1kcf88BXyT+y78f/DfwZ+MniTxVrUV5Jp+pC4EK20e58vMXGR9DQB+oLfB3wCvB8F6F/wCC2L/4mkX4O+A+3gzQsf8AYOh/+Jr54f8A4KV/DQcHTtb/APAYf40L/wAFMPhoqgf2drX/AIDj/GgD6A1X4Q+Bk0m9K+DtBUiFyCNOhyPlP+zXwT/wT58JaH4k+Nnj6y1XSLDU7WG1cxQ3dusqp/pBHAYEDjivbdR/4KUfDW6sbmJdP1lWkjZR+4AHIIFfK37Jv7RHhz4F/EvxT4h16C6ls9VhaOFbWPcwJmL8/hQB+na/B3wGqgf8IXoX/gth/wDiaX/hT3gP/oS9C/8ABZF/8TXzwv8AwUs+Gu7/AJB2tf8AgOP8aRv+CmHw0ViP7O1r/vwP8aALX7cfw78KeG/2d9dvdK8O6Zpl4s8AE9nZxxuMtzggZFa3/BPA7v2adKOc/wCnXPX/AHhXgn7UX7bngr4z/B/U/C2i2WpRahcSxSK11DtTCtnrmvff+Cea7f2a9KAGP9Ouf/QhQB9M0UVHI+KAHbqKYq7uaKAJaazYoZsUzOaAEzljX5j+OPDWl+OP+Ch0+ia1ZrqGm3WqLFNbPwrr5YOMg1+nigbRxX5hePvF+meAv+Cg15r2sz/ZtKstTWSebBO1fLFAH2iP2MPgzj/kRbH/AL+Sf/FUf8MYfBr/AKEWx/7+Sf8AxVZA/bx+DH/Q1f8Aku/+FL/w3j8GP+hq/wDJd/8ACgDSl/Y1+DUf3fA1iG/veZJx/wCPV8Sfsb/Cfwn8QPj14v0TxDo8Gp6ZardeRaysdqbZ2UEEEHoBX2JL+3Z8F33D/hKfmZf+fd/8K+Lf2RvjN4V+GPx48V6/4j1I2OlXi3Igm2M+7fOzLxj0IoA+7v8AhjP4NNz/AMINZf8AfyX/AOKpP+GMPg1/0Itj/wB/JP8A4qsj/hvD4MLx/wAJTj/t3f8Awpf+G8fgx/0NX/ku/wDhQBd1L9jn4O2un3cqeBrFZEiZlbfJkEKSP4q+J/2IfhR4S+JPxc8aaZ4l0SHVtPs4ZHt4ZiwVCJyoPB9K+w9Q/bm+Dl1p91FF4o3PJE6j/R37qQB0r45/Yz+M3g/4R/FrxdrHiXU/sGnahbusEpRnLsZiw6D0oA+44/2M/g1gf8UNZf8Afcn/AMVTj+xj8Gic/wDCC2X/AH8k/wDiqxx+3h8F1/5mr/yWf/Cl/wCG8fgx/wBDV/5Lv/hQB5L+2V+zT8Nvh38B9Z1rw/4UtdM1OCaFY7iFnLAFuerYr0X/AIJ5tu/Zr0o/9P1z/MV5V+2B+1Z8N/il8DdW0Dw1r327VZpoWSDyWUEBsnkj0r1P/gnvn/hmvSs9ft1z/wChCgD6XZ8Uiru5oVd3JqQcUAA4opaKAGsuaFHyinUUAFflt8TvAmlfE79vzUvC+tCZtM1DUUjm+zvsfHlg8HBxX6k1+ZniXXLDw3/wUam1LU7yGxsLfVFeW4nfakY8sck0AfRK/wDBN34QbR/yH/x1Ef8AxFL/AMO3fg//ANR7/wAGI/8AiK9b/wCGjPhj38eaJn/r6Wnj9o/4Xjr470P/AMCloA8dk/4Ju/CBVLga8Sv/AFERn/0Cvj/9lP4C+FvjF8bPFHhbXVvv7L00XDQfZZ/Lk+SZkXLY54Ar9H5P2jPheynHjvRO4OLpTXwP+xP4+8P+C/2ivGmp63q9npen3Iu/Jup5QqSZuGK4P05oA+nF/wCCbvwgYZP9vZ/7CI/+IpT/AME3fhBj/mPf+DEf/EV69/w0h8L/APoe9DP/AG9LR/w0h8Lv+h80P/wKWgDxq8/4J3/Cezsbpo113dHExVjfjsCf7lfI37IfwB8KfGv4qeK/D3iMXx0/TYXkt/sc4ibcsxQbjg54r9EtU/aN+GMmnXccfjnRWZ4XC7bpSehr4X/YL8deHfBHxr8c6lrutWOkWFxbyLDPcShVkzcEjB+nNAH0r/w7c+D/AP1Hv/BiP/iKX/h278H/APqPf+DEf/EV66v7SHwuI/5HvQ//AAKWlP7R3wwxx450Qg9f9KWgD5B/aq/Yw+Hnwc+Deq+JvD39rf2nbSxJH9qvBJHhmwcrtFe3/wDBPHJ/Zp0ncOft1znP+8K5P9tj4zeA/GP7P+taXonivS9V1B54Slrb3AZzhuTgV1n/AATyz/wzXpWev265/wDQhQB9MiloooAKKKKACiims2KABmxX5Z/F/wCH8PxQ/bo1Xwrc3Mljb6pqKxtcwoGdP3Y6Anmv1I27mzX5oePtZs/AH/BRNNV16VdP09dRjmNzMcKqNHgN9KAPU2/4JbeHWJJ8cakCf+nKP/4qk/4dZ+HP+h41L/wBj/8Aiq+rovjJ4G8tf+Kt0fp/z+J/jTv+FyeBv+ht0f8A8DE/xoA+TH/4Jb+G1VgfG+pAYz/x5RgH/wAer5e/Zz/Z10/44/FjxD4PvdWudNttKExjuoYlZpPLlKYIJ46V+p8vxg8DsrkeLNIPf/j7T/Gvz+/Yh8WaJof7RfjS71LUrWytZhd+VPcSiNHzcMQAT145oA9U/wCHWvho8jxpqaj0+xRn/wBmpf8Ah1n4b/6HfUv/AABj/wDiq+sF+MfgVVAHi7R8f9fif40v/C5PA3/Q26P/AOBif40AfJF5/wAEvPDdta3Eo8cakTHGW2/YowOBn+9XzT+zJ+zbpvx7+I3iTw1e6zcaXDpcTypNDErtJtlKcgn0FfqFqXxh8DNpt4F8WaQS0Tji7T+6fevgf9gTxNo/hj45eObvVdVs9OtZ7eVY5riQRq2bgkAE9eOaAPU1/wCCXHhleP8AhNdTb3+xR/8AxVSN/wAEu/DbLtHjTUgP+vOP/wCKr6oj+MXgb/obdH/8DE/xqT/hcngYf8zbo/8A4Fp/jQB+f/7R37B+g/Av4V6j4utPE99qdxbSRottNbIinc2M5DV9Nf8ABPP/AJNr0r/r+uf/AEIVzP7ePxa8H6t8A9S0qw8RWF/f3dzD5NvayrK7ANljgHjjvXV/8E/bGW2/Zp0UzRtEs11cTR57qWGG/Q0AfSlRb8MRTc44BOKci55oAkFFFFAC01lzTVbLVJQA1RhRXhf7RH7JfhL9od4rzUJJtJ163j8qLU7UAkr/AHXU8MBXu1JgelAHwR/w6t01+f8AhPbg5/vabGT/AOhU1v8Aglbp2f8AkfJ//Ban/wAVX31TCpzQB8HL/wAEtNO8sKPHtwCBjI01P/iqT/h1fYFQD8QLkj305P8A4uvvRRj60tAHwR/w6r07/ofbj/wWx/8AxdH/AA6r03/ofZ//AAWx/wDxdfe9N3UAfBP/AA6t08f8z7cf+C1P/iqmb/glvYSRhD4+ujj/AKhyf/FV94jmigD4IH/BKrTR/wAz7P8A+C2P/wCKpf8Ah1Xpv/Q+z/8Agtj/APi6+96KAPhzwx/wS78Mabq8U2s+K77VbFDl7SK2SDzPYsGPFfZnh3QbDwvodlpOmWyWen2cQhhgjGAqjoK1GXqRwaaq0ACrmpBxR0paACiiigD/2Q==;" vertex="1" parent="1">
          <mxGeometry x="189" y="91.1" width="89.01" height="65" as="geometry" />
        </mxCell>
        <mxCell id="WI5wiZquoF-8McdeKyBL-11" style="edgeStyle=orthogonalEdgeStyle;rounded=0;orthogonalLoop=1;jettySize=auto;html=1;strokeColor=#006EAF;fontColor=#5AA9E6;fillColor=#1ba1e2;" edge="1" parent="1">
          <mxGeometry relative="1" as="geometry">
            <mxPoint x="494" y="292" as="targetPoint" />
            <mxPoint x="392" y="292.4117647058823" as="sourcePoint" />
          </mxGeometry>
        </mxCell>
        <mxCell id="WI5wiZquoF-8McdeKyBL-14" value="" style="shape=image;verticalLabelPosition=bottom;labelBackgroundColor=none;verticalAlign=top;aspect=fixed;imageAspect=0;image=data:image/png,iVBORw0KGgoAAAANSUhEUgAAAOIAAADfCAMAAADcKv+WAAAA8FBMVEX///8AAAD/43X0pQDgggD9wAbslwD7tQDokADvnAD2qQD/zSf/3l7/4W7mjQD/32TjhwDyoQD8uwP/3VT/0C/+yBv/2Uf/1Dn/32H8uAL/10LrlQD/yyL/3VXIyMicnJxLS0uLi4v/9dH/++7aigH/1Cfy8vL5xGn1zp/77MPOfQLedgDW1tbffAD5sADvxp9cXFxpaWnm5ub0zZ/ZgQFAQEC3t7cjIyN+fn7Q0NCEhIRmZma6uroyMjKTk5OsrKw7OzsVFRX979f6zID4tjX85sb/44b6wyfmmQ3/8sX/8Lj/2j3z07TKcADno1z45tVsSI0JAAAHzElEQVR4nO3ca1faSByAcaMxEEUIigqGi1Rlt1vKAlsQFETa7a5t9/L9v83ONZeZSeKeajOT839Oe6AU0/yYyUz0RXd2IAiCIAiCIAiCIAiCIAiCIAiCIAiCIAiCIAiCIAiChD5++imln/M+vRfo095BpL099Iv8ZtUPrvI+w+/tc0wohpEHeZ/i9/Z7hvBgr/4573P8zkYZQDRVTb8ck338giwoMbrkFJO4F62AxPimUUCi4CsecS8+SeuFIwpAllscojxF8TDW60UhimsMn6T1ohCTBrBeCCK+/g5iwjp/LAxRGryYrxhE1SpaLxYxHVgsYl3hKxJRvgYLQ6wnwIpETM+tuwUiukUdRZeXBHQd04mOG1aPQl0KLAIxyBfHksFNIl79cR6t0UC/Gvx5o/Gn68eIrnnEq/OkGqy6g40uW0gNJB6l+1CHZceNj6BhxJssYePmyXdFoEnEq5vzi1QgChNdMaOIWcLGU9mRhK5vLFHkJRLNHUXJd3jYeKoWZxTlATw8LBRRDSREvxDEJCDq6Voiohs744jJQAWR3LsaRWxIwMNYEaLDgIYRU6Yoqt2OEB0OdJyyQcRUIBK2Y6PoFIAoAqNExzGfeNiQgIzoxIEGE2Vg+7RNRtFxjCW2U33t01NCFHy+4xtIlK9BCiTEsig0cRSThlAeRd844mkGUBjFAGsUUTlFA6A8UX3jiBlAFCf6dKEhT/3qb3mf+nOLEpU+1PWHcngNEp9vFrEtJgoJ0Q+Gjwq1Jb6R+nJxxjpPACLidZnIHM7z/XJZT+LXI0W7YRenCuA+GUWC43O0jNOS+LW2m9G5Ygj39ymR+5hQT+JRlnC3pgCi2HITE2pJfJNN3G0rgJhYDX06E99mEo8E4r5ALDOgbyoRLz1t2RcQy+EIGklky2tbAaTEsiAse2YRgx1EBSwAMbpJKoUBsWwmMX4fgDd6EZhANOVajPlqtSOFz+hRjA9g7X8Rq1UDiEfiCNbSiIKvagBR8BEg6lnEqgFEcQDDnkGsVvUnSlfgM4ieCNSZmDiAJBXwOCBWo2lKVC0xGcTjY06sxvN+zRsk9zYD2Gw2ZeIxJ1bFtBzFWtoUbTYF4jEDUqIk1Jwoz9AmSwFUEz1Py4la44uoGlipVJrCFGVJRM/TmChNUD6AlUqMGAGKo+jRbB2JTcUSGgWiFEBhFD1Pa2LCFVgJU/hiRM/TnJgB7HQqSuHx9S+eCNSUWEkDdnAVFbDFiJ5nElHyUWGnIxNbLUr0xLQmKmZoJ4HYIiGinMZEGZhEbPHMIiYO4AkuSmy1TCQ2a4olhvio8ORkXyVE1+IHQ4gdYROshAMoEluxjCKqlpiTSPsSsFQqqYnvtSTGdnnZx4gtQWgkscOFJ2LSCCYRbVtjonKC0s5O0K2MCFQRbVtT4kkc2AlXGQpEKYAy0bY1JqaN4FmUWColEm1bZ2KGLySW4kWItm0AMQXIiHjg1ETb1px4pvJFgZRYkmJE29ad+OUsC4iJMnBEibZtIvFMShaORoQoAs0gSr6LC4mIfCYR355lACXiiGYiUcmTiCNzifIVqCKOwswh0msxkRcjjkYlE4kfv2UAQ+IoVgLxr7xBijoZQE4ciSmJ7/LmqPr47SLNx4gSUEl8/07HQcT/7cu3m/TU/9H0h7/fCb3/59+8MRAE6dGUNHidgw+kgw+Hr/MvpTSxWHfTlz94jx/8shu+0k39klfo0gp6+X+7Hx68T1/JiTgdDKZdTH3xOYSIywE6+kPwAeZEpJcKmrHjlz44ItLpv0FzlTzJlTiw+LOXqx/MDHRw8pgrcWfGz2faRy9ePtDPf764Y+/sL1b0yXSxoG9cLmbr2R2f3nfoVTTfx5HpHhK3WhAv2fks+ArxEDvLoWWtd/hpLvHjmL1vQV+2rNWcLM3hwaOj+Mi/NkfiLX2GT/xhs1kw45AvhnjJoAM7oyOCHhbLaXfMjejRsmaTbT88eEBEsjl/kh8RWWboYc4Xhim7NrfWlvwZ0zfkGTX1+B/vGT0Y+DBGHKDHe/pKnkQswtfabTCqc0qZRATkPFd0nvKPAq9TffaGhXDwcF/ki3VOxPlqtUFDYU12iDQ4T3r9dOloLa3bBzpBJ+RhST8R3Nq6pG+/FQ8e2fq35PLN+e6GLBMrftGgHimJDkEfLZV0+LZkMNFONx/SZnQdop9RrD570/ySX8j5EdfjHl1K+GqJm9A5e0+kazSW5GMY0uHrWZHI1aomshX1gc3rfFdUfirBvragf7XBZzXAo3CPh6tHX8XnPOaRdSeViDdG/CFqQIyewiWdqAN8ea7w8zk+zTVdOnp8CwlKJy7ogTUgosWlx5/TXQRvgFt0hguCxbOVjNkmXG6Ct5tBHPDbEHLR0RsVPDW3ZBV6tCbdcJMRRJkTdbCjBRH/me7oaEayv0Eatr0/WNsxv41bi998pRLvrGB+507EtwB9xOk+hvcq6HaA7nlLvHyyiYyfb/CXLvvUoSb25qjeLOdNI/4t1CrYCoJ7gH5wc21FvnHehJsGI96LB78L33IbbEo/nDiRvkuc0h/njMNTQVcl2y0XwW0bfvmebooT+k75/m2nu70lrfn3Yfhz+fE/n1J9GzwdDgfqNw0GyW98pZ/iQRAEQRAEQRAEQRAEQRAEQRAEQRAEQRAEQRAEQVAB+g+CoxJAeYgz+wAAAABJRU5ErkJggg==;rounded=0;fillColor=#FFE45E;strokeColor=#FF6392;fontColor=#5AA9E6;" vertex="1" parent="1">
          <mxGeometry x="576" y="302" width="98.3" height="96.99" as="geometry" />
        </mxCell>
        <mxCell id="WI5wiZquoF-8McdeKyBL-15" style="edgeStyle=orthogonalEdgeStyle;rounded=0;orthogonalLoop=1;jettySize=auto;html=1;exitX=1;exitY=0.75;exitDx=0;exitDy=0;entryX=0.5;entryY=0;entryDx=0;entryDy=0;" edge="1" parent="1">
          <mxGeometry relative="1" as="geometry">
            <mxPoint x="131.56999999999994" y="170.4274999999999" as="sourcePoint" />
            <mxPoint x="113.28500000000008" y="143" as="targetPoint" />
          </mxGeometry>
        </mxCell>
        <mxCell id="WI5wiZquoF-8McdeKyBL-22" style="edgeStyle=orthogonalEdgeStyle;rounded=0;orthogonalLoop=1;jettySize=auto;html=1;fillColor=#1ba1e2;strokeColor=#006EAF;" edge="1" parent="1" source="WI5wiZquoF-8McdeKyBL-16" target="WI5wiZquoF-8McdeKyBL-21">
          <mxGeometry relative="1" as="geometry" />
        </mxCell>
        <mxCell id="WI5wiZquoF-8McdeKyBL-16" value="" style="shape=image;verticalLabelPosition=bottom;labelBackgroundColor=default;verticalAlign=top;aspect=fixed;imageAspect=0;image=data:image/png,iVBORw0KGgoAAAANSUhEUgAAANUAAADtCAMAAAAft8BxAAAAkFBMVEX///8xYZIAAAAkWo4uX5H8/PwZVYsdV4z09PQUU4orXZDi6O9FcJ3m5uY4aJfR2uW1tbXa4erb29ugssirq6vDz9zDw8OPpb9hYWFykLFpiKuDnLm3xdXR0dHu7u6WlpY2NjZafaRRUVENDQ2Li4uioqKCgoJ6enpqampAQEAqKiogICAXFxesvc8ATIYARoNwvkjSAAAUaElEQVR4nO1diZaiSgxF2cEFcUFtQUFR3Pr9/9+9SlLsiz09Qk+fwz1neroFoUJSN6lUqhCEHj169OjRo0ePHj169OjRo0ePHj169OjRo0ePHj3+EJptLfaXaB2so8tpYdnaTzfoDzG2GbKN9lb76DYs4hCF9o+1MQZ71uFpfbsDgugUWrZXOmdsna5ps2/BfuXJ7qksUILjyf0BUZLmhsGx3KYDa7acnOOF1/Ipw3u9SFz2xQ/JZFU1N2nV2QXJ7Ki58Y/1JVy5rmvb7McqvKwzT2n/A31s8cg9+xtDUQFrK5XpeLuuL+fTJbjeuOkd16GrycXLyp51Sa7ctb7sQ3znw3nh2h61zhvbbnguq3C9yNOEbZ1PbkmgBLJ75l8MOiWOPb9rtKpsm21FidTDwHp1NU3zTE/L6U0OueL3b2vzS1zojmGZ7lKMOUs0Nstczjf+aCKJqiENRv7GWaaXtPiDe1ejXyHA250zPDeb7hiWU9PMPnDNWq/jVprLp7NhcObPpZmcYTq6zuQZSAP4IRmiok+cKT8o08M7dEMaSAGP2KOYT39gqIoKUFRj4H88p8V2zJyJqIqiwSCKqiJOtvO46ZrDvpOFJCqTOb+Ai7zx6KJz7TMPUJuPdNYqKW3TQDJUXfSTB86w9BVRyrV8YIhMJzMusq8Wjkqi6JCONTSLY5OlvwcuMgD+Ks/1YnN5s1hHUbdLPMkcKdXniLpPZwjP8lVE/UnH0Arv9Xz5JoC3OaKmZiO1qrmxOgbYfZ4FA8sJpnC5ZpPSSewY6RJN49qyUHgTNPSlXqmD5GmjUNtqRSWi61u0Ls0vPyBDJ5FP6PFaFUqDiOYEv+2UpuYOFGzStkmbJLyxwwt/VFxOcfAQstNLp/c3CMH+4JdZs1Dix9eEYtA3tWLxQ0AZ9zalOvLoTJ40WpY0gpOdrwjFnsAIrfCj4mzSlgbKanFs4saqcsTGhqL9TfUvCQXEMqsVaw5HoGud25PqwnuVWXQxhWb67Bxt0HhOFpKKYvkVjwopw2a3vbUn1YMT4EezqrCRL9SZF0uEb8ij8nOQJuBFEm/SBsb8mcnNtmVs2TlmM6cXG4/ezayyQeDIKHYnbWDBLn5h/++aaUCHcGnzB6qCJzGB+GFXflwG8GDYplQRdxzb+nhhwAnQa2b+MkRQcMWzwKut2iRBGDGNgdYb26dCCPcnvYqAdKeVPpZUgUx/1ZJQMoxPhdce2Hzpz6ogKcAY5ZBF1UiqtqKLmCyejd0KTWb6pwYYf1Hwi9YdS9WWrmxOFs3WJYIBvqD+aqANlp6HapJUbbGFzX1wM1noYEjfEYrxHYRORWXFumpLKpcnVyqcZRaMomdfDZbyECHsKwZaMVu0JZXFQ9tGCkT/0tzz6qFDAJFXliQKZCVtDfMXvM82GiA+703jKS++vMz1LOQQt8U40CJfKBtNFqhCOPrCRhvEAo3kOiWGX2GLg/wvSQVeR/uOqiRDFEUdaDDHsai+U4vZzjhuaZRKT8nCEBVAdR4qD1E3/I3jOBvolTlyx0glanEmYRX3q8ZmChT9GspgM19Ozdly7jfkmUimQZwcROQiMgyVjy2GgfYX2AK7wVxV1c0yHRDNKlJIKSTdKYyd/EzaFHsau3Grw6tQaOYCTMNsJs/CV536CEpSd8UbZW4QU2B7iU6IbiG2aOJt4uakCXI8f1MfZSn0BMyns9lunHkhNEb3Z7U6NXKlq88b4iFxnpxtPjcT/VOffGC+sy6IxxyHMB3999/np26In8u8VEgWF7KRlsCo6CE0Rw4qtz1556uqYYiTkfGpQodf1tgg+rfdp79jHWdpDOBcLcMWODy5tjgSpnR0QwOxkdRJnhNIW0i+Kcva0hfl+qGmyo5p4oAehYSDMzO1BRwzanTbtmARFzWN3ikTyOdBYnMcwf/VvRHZ4KmgOtn4XjK0XGyM3WoVT8K0A48HFw0kiBYocQGkCXHFCPpOdQoH2YWNxoz5dIn5QPbnUs1f7tRqt0JvCNdvGGDhmDGR2vCB0jaiWjs6QangeiwOMTh3ZNgIZ1ZurXYrQVjTnEsDCaLRpV7UUH3fEAe6WZdELIT4pLrkT7TPcauJWwHpAmLnBrogqTK6lEDC+kDeAK+d5gNQ1elDQSEXlFdoDy7RhVk/1E0sqixrJV1IYHKpq0AKTY9itmDd6oSIQDET3KHeAvHZl9pP0WHVt3Comw7qkUKTv9AA5XZ5HfB4RRfVUmHzqkkQUkjpeEyZZjsgKr7dcAkR0S3qozqxUqoBUPy0Wqpd9imByaVSxQbYViowRkhzmfV0USPVQKtL+eazN6Ar4ZP/IYHz0tochXDYlGnXat1wTTKmEAhlITE1erF6MMaI/0COsdpmQAb5Qfbg14lVzYEDBaWq/BKqJ/4G2mMcmaALDtpmQMCaZmhrO1bBC8eAHlKjYDTB2KSzoQnGGa27YMSC7lLbsTBwK4+lQCqvOt8hYR6afyWramT5fSclgjZ1Xq1uiIVNKbe+wQLpQXC+QMXFhgD3u2E/bh18Jqk0IRMrBUZ9ZaWo9WxBzefjXymNbtGW3XYHIQkuzbM9SmXzJYN9PKvVL1DEnI5OBO6uO+QKAZn2INROu2EnKTcfB1q1M3UUGFEJB/A8dlq0xW64gm6Ec8M1dSRQHlEOIorDpqKyoDPOEw2ZIBUmLM4tjxdTHHjHqia0kVwV8In58Ualsoj44w6I8bDcQVzBcaaOVf3ka6TC8VWt584qK5YKE9Fhq+VLOaxoZGBW9hLsQGVnpoAzaJh/ROqTofCJS0Uf3LuhdYDMZzOrUzKSVsEWaE6NBTVIg0+FB4wqhVEdjEFSROTuq7kdmF0ruls0wMb5R8pGsQclIVlSQvfechYmB4s8Y3XQhOFpsQcZQlOYT9974iUl8lc6V1W75bY5eHzqudKicCxcSFljcPdqAhzyu4KvgpeaK1jT1Kmq0OHDzF81U0MewssdoSjh1VQxVSX8h2SJY+BFp6pCwkUTrHz6SNK5PodRwutyVQOrEoAs/4MvwEiu03VKXlPpGXX07FgEn3xzPQ0qC2wXJNuBH4AhSHcEiGg0Qezp07SSEwmg2rvlIKl8rY+PJXXD7nwVB2fBaqsikn4mKxPEUrFBnbKoen0JPRPcx6lbodARAwtWMwC1bhdrC1XwpXJBDGiFCeiaDU6PrS95KSKiWLomCqcFHksDj2Ls87VyQQwiBfzytfulmhgLwrhHqxlkYfwjyI6kiJL6B+WC3AaR1eMhsDx2w1N0bjvRibd60Bi1jtk+qShEW374aIDiF0uAdJp/Bao4RKf9OVoH8XLdLnzXiW5T44X4YpwEs+120LxagSDpWJPPF04W0EGqKY6aKsdMfM1K/hvL0Ut9GRO+eM7iGrpdL4vVWJZdFLN9qSDbCQ+vKsSlynRvuM7nUeS6tFSiqVHKerJnj8de+vehG6lgfo4PHopCYXCh4fLRS7hKo55Xq5todV1Rx4SwG6kgogZyL40FabmKnKztBqlk54mc3cjvGDHJ89EgXwMlo5TnjkJdi/vJQs/iTzzp78DIsq+oWKveGLfj8NdXJEk1Ns/lzJzNpsv5x8iH7is/uko23chRFhwslYNcYqFwwcCWeSv1ddyUTjgbqqKI7J+i06oyXKDSTbJpwU09t2CFHE68+cARfSdW0WGIUT124Uou5nEkSfz8oMLo/bC7qPBOea1sloIeLe4LcFzz/V+e+Pwx5dfUsVDsnY6L8qEGV1FGcx7Eg6baXwjNYXEuSNuq4spTRo/XMNnQgi9nQSU26QrHZd6Hz36TBqNtunvC+BCTTje48nrsJ48wyFHZ2b02ZIdGJOSYm5JnmF3Dr+Q3KCFr7igvTe3ncQzVn6rkqNJpXHnmSNTpdFRio1S0wrgALXx0LRR6EaoaeCqq+knNunKymj23A4VkMuKtAhqlmhev7llrzjodD0qOscXLyx117YCGEM7np0osIon6Ni7rbiwChRjQCt0xg21b+3QjnWvXu07hthDZ9ELsWOSp4w9EVRWNES9Vl+VmqbAqpmKbpscPbMwUxvEDgjbZSDyLac7MmArtAKRq8MJQbKcVRTpefmYTLYwi1mgjXsjbUuEwF8iWjVLJNLV4pX2mHtfgbHWcZMqA7P+wXqOeaCOlQ8FqFjfyAQ3Vklg27AKnah7rWd5P7023z1iMK8T7Q0V7d8wcjzy2FyR38EIqiD0WHXN4E9x41LGGB+wm4frwcY83CXsMX1lgvMyqi6zLF+Geg9v6FBOwt4hye6ANb1ZIE/8NHIiTB+eOU+t/Cs0No+B2PB5vwdlFJdyamR2dcNDe6sX3Qdbizcu4VA2xBU6lPDqbsn8LQhpKNMTskI0ek+y/BozcHlrT+ApLguyOipbeBYv2EmmQCkbCq86nrP4OvA6+QSoYxXRTC/g+cKmqq6QBOMt6+afc1WvwFef1Ez4xsf/kjrB/DC5V/UoMLNM4/i5iR6nsTIF3CZjiHHaTdX4b+PqS+h2PYLMEu6sSx3cBJoYgjVsrlfQLiV2Qj5RSqcuzI7Evup+2/0vcmleFx8T+U5tHfxMBOdi6ibmY2P/pcUgZl+YVTkCBWoeVm29CyHdyqlnWw/fxefymiF1IpoVqggsc3i9+WcQuUAmyXbWNGRkgDBmDfygV80XEW2NUdiwqZx/+sihQIIcFWabKJfxYe7dveZ/UVhAMa/e+1CG9pFXnfP9xxNugysU9SA3crAgz27+M1wU+ewLjDNPIemKDbxdtDbtbPPFOQOITg1dzpOCqM8kQVZ1vDJ7I/NuAE/sU5y23E0M3Rr4T75qzGP5CAiQEqViCrJnpnLYXZY78Nng0V1K0szHuVP5bhaJhPjjjjFyeRTMox99pfgg3nhGyVq7trvaXeIro9BuJIoFc9daex/nfnwd5gcycHddb9dtjfhvskL/K6xj8C+/veiNkWfPKr1Pq0aNHjx49evTo0aNHjx496jCbb/zJQJr4H0+zcMh8bkYDXYS0aCZtY85mwj+O3QgWxikq/lD9Wf4QfKzi2waMTSLyRDd+oKF/go1u6P58N53Nps8PSU2Wy8ALKhVRGTlLdmj53KqqqMcrrEfG5C/uKLefYJjr0iSjnrkYL10Xlqqh+uk7VeW5YSgbvjn1N6RaX1MEUavvgITtc9VcX9rptDkOvL9Tzy+0NScGLUj+llQHfBU3vhAe0lzXNrOrU7W4pGxr4LYLpi4p08LJsm/QwrvvSHUdhsz2ENo4bLdo4KkWX+jADA9qgHxDLb4WQhA8ScKJ5O9KlcL96qvCou8U7czFokZMHZYTTvVksWMWSwU//nuphPUXF4x/S6qnWNSV5jhzsEO9aH8IZoOzt0gVfrFs4FtSsYe/qfhYFmkXpPL5KlRzvUEq64vFo+vvSCUzpluWP54qolP+VIA9+8AE3yLVkX4Zr6yVmyFE2XbZB8lcTUYqONPO+TrZXll02HNXbuaYo0iiU4yToLtVyAqYwP7nb5BqTyS4uPH5GT43aMfbCByATNz74f44HG6wYDjkEx97QX4EsqDdAmHx4GU/Cz4bd0kexpaJpY+cXU4yR1RKkhI2hq69Q6o7FC1qwfB+WrmuxTcuguqk9crWxu7pCNUS9jo6HNdRtBe063B4ZmeuLsNAGx6YVMNgNbxfwtMKjh0WtjdeZffIf44UURRVVdrOk/fObwy1RipH1M03SBVhOXpAq+EY7BsyfZQU6di8DjOiApdgeOWFLuPH+khSHSIyuSApF7GyxZuz+VZVVCaZbvhkjVtDrQnW5qI++6ZUkcURnqkaYpFxxWMo+pAP6SKwMy3xIA60hjctPZOkOvJXqIWZqywKzt3cffiizkT7hJeUM13VRDTf11VuER/uFxBkCz0uw0VOqlW0SKUKsoUGJ7LA2I3fs1e5lilTm85HoiRKpvAh1lngX/SraMFhuWhNXm7JlwvlO9EwKtgISXXMLuRzuVT0kZ1zEYvqOovZyGCuyimFHDGYG34LB2LrsuGFDXW0UMt4PS/cdHUvSuXlWs7Zgr/LeTVc2ynCmrp8TRroM3K2VdChTvI9Uq1yLfDQgXn7K1roPeC1ISjVOHZuWakOpFWrMIcfwAD+WdKJI4pzTa0MA+EFCuCe36WrrFTjJISyV/sormkkqbScrjySipPFinmpcQbMLpefemlviyUMTkZStcP6QNN8j1TjHGHZ+ddCahGtXKF+dc8WMK5yUtnlMHmml+M9HIrsFLEqPvRE3D7yPVLJ9ywHhMxV2Va6tE0jSUiqKPvldU4qOafHfQQrfUQ+8s1gp6KRSWoFX2xEjBrfIxVzSZnC2ANr/goXbCdfIHngpz08Jsqyho+sVOgSYoxpV7GtIRYHh8zIdjDAwrWpeTwVGuJ/T6rSwkkvE+FcwJC0zAe8gRF9ch7euBoXwwt54aucnJj4qICe01IfFBqvGbgcQXDyaRoUSqXXsb9LKii13+P+XG5Avms/PPIyJBZCYQNZFGyPx7ii/n7Z71nwe5KHOalgXL1AwmRX4X1sK0pSNjw3RwbfNOtDl5RnxjxNFgfTHoPfkupWtcjVZYH4Ibjek+LF05DZV7AObnEtMCxhQa60z4fj8Hg72zGzpy4c9li40nf4Z7KvSIr/NCFJJ2vTD8NQYk5/6qI6caZ0ZLlRDWNg0KhrJA02BWxfZXPdVVUdtmydg0O2qspbnNdBEJ3C+Gx5BXE5SUj7/2GXkt1sXePqHNwO6zBzh7mqQFw7GY0muqKqejpcnG10lYW9E380gAhR3zLj3MKFJxDjU0Y3xmdNLPIeeG6mwRVcXgF5tx2pOkCZ+M9cxeDM8Q34XNEl35kJJhNnxLqh85GBg/ioiRvfAzfrzE5fXbAte+Z0OU030MlAM2fL5ZQf0XxVqfJjbUO+peRot7BnxaY6S9M2wuGdyFG2jm2UP/9QbSFskXNdY3zYco6+U2gWkOP69Ku2C+jRo0ePHj169OjRo0ePHj169OjRo8dvxf9UyllgJJ869gAAAABJRU5ErkJggg==;" vertex="1" parent="1">
          <mxGeometry x="37" y="86.35" width="66.96" height="74.5" as="geometry" />
        </mxCell>
        <mxCell id="WI5wiZquoF-8McdeKyBL-23" value="" style="shape=image;verticalLabelPosition=bottom;labelBackgroundColor=default;verticalAlign=top;aspect=fixed;imageAspect=0;image=data:image/png,iVBORw0KGgoAAAANSUhEUgAAAOEAAADhCAMAAAAJbSJIAAABa1BMVEX///8AAAABwPqA0mEAVaP9aTCCruOyyuxoykQAV6cIqfH/bDEBxv8Bw/6NjY0ATZQAEyVTU1MBlcIANGQuLi7g4OAAUGiHh4fW1tYAQ4H39/fMzMwAKjYAKlCNOxsBuvIAISoEuPYBodKzSiIAYH3BUCXlXyvDw8NqamqE2WTm5uY1NTWpqam6urpJYX9vlMJZd5x/qt59zV8hISFzc3MSEhI+Pj5OerQXJhFssVE6cSZeJxISGB8/VG4xQlZggKccNhJXqjlWjUF8fHwXFxeAkaqpwOAqLzcwQFOYmJgADBd0zlNfnEgrRyFt00dmdIeRpcFYZHXVWCg8GQscJjKLnrlzmslFXHkmM0NdXV0AP1IAOGwBz/8BdJdISEgOFws6Xyxyu1cnSxlNlTJHii5FcTRVIxBLVWR1hZw+RlJrLBR9NBgbCwUDRmQBh7AFd6oEVXkGisUAHDUzU30InuEGgrofPRUzYyFKjzBwExBAAAARf0lEQVR4nO2di1/TShbHG0EuSEFBkFJUXERKS2nLo6xoH4ggD3leoYBeUfSiiHu9u+597J+/SWYmmcdJMtOmScrH3+fjRyBJO9+eM3POmZmksVgLK3GiaZODYbeieUr2aqZ6k2G3pElKTGlYA4mw29IUDWmUhsJujf9KDGiM5q6aGXs1Qb1ht8lP2T2Q1hXqjXQPfPjw6vVGugc+nejunnh6xczIGLD7uq7uK2VG2oCfJkxAHXHi05Uxo2hAzHhFzMj1wOuU6uqNmcTISMrQyEgiE4XMz8mA6mbMpLLzC0WN08DkxnSYWbyLAQEzOqY4ycGNSR6NUV9vIhxz0kmMaEDAjGDBkXgO5gqcViZTgUOOUA0DDQiYcUowY1YGD2ku4IrMvQc6m5Hlk8ZDGgqOMTFHGfC6K6Bzb+RrERlNBwToYMBuTu5mFA249nl/92L1cM/Q4erF7v7nNeGc50HwJZx64KP7jB51w2acMsf/DRZud/XFT5BeHO5+Yc6cbD5gBjbg9e6nGqenTilOJhabtn8rfj6E6Swd7pfs05ufH9mxizEggwB9ANftT+B5LGlbz8F4PKRtyWZnuUmw/TrBpUh4yZ5hfQZFqxMWV2XwTO2RTtlsPyWEfAzs/ioSfuVOsXpj7BT9/0Waz9A+uToQwkshRPwsEk7w55CPIYYy0DUlwJ9++oyuzgRCeF/Msx+9YvlePRLPuY8J0X+fFQl30WVNzsUdCfWxZIIRkAlwhNqFEuCeFjKhhHhCbV9qIGUs2GKEWnFXjvHF6oHWmoRGbzz09k865LceoQF5sedivX2u9m9FQkNr+7urey8MGViG9g4vuKQ0dEK7oGBKCzlCotLc2traQcnljHAIdaKJnx/ev7z89ErXp6eX9x/+PCFgyhB6KwzC7uuPvr4Sm/JKr6C6XQhz1QPxIkeVCoWwCLsn7ju36z5TgHCEHR35sps/UqpUOzpCIuyeAHJuWl/t5EYk7OiYyee8LFkqV2eMU8Mh7H7k+fH/y0pQIUKTspqrCNPBSOs5RBcaoQSgLoLoRIhUq1YLuXKlsn68XqmUc4VqtcaeEAohVzMVD9bWvnzRR3vOIhMg4UGHmiohEHZTi2hfdg/3rCRTD9d0tMZTNny0qMx4Y9kqayEQTlh40HTLi1ULcgKOh6WqNF/eGo+CJCS9sOSYVh7iYIB6IhDxD6oydpypHtuXBEqIJ5f2ncuCfQ9Cve+WPSFzTNAMg1D74lABHZIJMhdCA/I4x4+btCrs2aEQ6t62K3jq3q49K+9OiFSqHBX0EJE3RAPnufNCIjQp9y/MdYfD1YuL/TnmkAwhq7JFWI0OoYtAwmOHPAbJygdq5C/HLUeY6yi4MJYsI6JAeDQTQk7TMKFbcWETdlQrRmkRRtbmA6EBmatAlFzWGi5htbAOg60Xqt6ERkSvVXPlY+bSihg1QiTMmwXQOtOpihWz7sm7EB4JDDO1fFWvMKpCWREBQjzsGQ3Ulbca6EaouUR5QDMHESAU5UpYlE+8qdS7lQj13iZrxpkj65rWItTDuExxkadT0zAIDxwtUTvwItRVdku7O2pVLmSGEw/LoBnzpCz3zEsP9JE3zxtzJl8tcDEkSEJTVMQ/KFcZyny1TM0SPkLne2TexdLxerlcPtL/rR/zcz0BE75Cu4L4PTSl44rRwMoxn6RcovM/uRPKKRjCxoQJy2X30zhVjgIhjM25N0NGA1bWVsu5FlC0jvIB5TSx+cYJh+i8NH/kvXJRLJupQUCEGaAFLgsP0KEMl3nr8UDouBbccblARrCACGMpsRm1WmEdaGJpvVCriX9OxYBZfb26KBzpI2gJu23pYL18lKvW6EgZFGEsM8/3xbzZRL2FeIgvHhyXc4WaEd/4aaS558aWJvQzUCB1zBABx3LEBQJQEonswMvzDaTCIjpj2rrEFN6iWoDSBEeRDysIQEvTPKFTs1LsdWSff1l+4WIGW1A7bQnCQeK0xZwc40zB6udB7fVmCF3KvCpISG8Vr3gXiXkqNegLFNAaV8VZIyziWiP8lX308LOeE7Juy3i1AjOpPxfwnSV2DncktnEmb1etQruSDKJmVBdHhXy+VjPGKf1frZbPC7NTOmAgAyktKsMpGQVQDY2lNb119BThPHApcGu0+TJI8MFJ9pMa6e2bGvBPU329gq+JGU7RaJ6QbIKuNXgKYzhqju3NG95X1KENoZkSFxWdspAU76puWsiy167Uy+DVWn5UzHhaos+l7wz2StYq89xNCA4+7ouE5whkXRs5l+XP55TY8LqBbaVXuDfvuY9AosR7j6Yd7dgnF59HspMLoNctnGxAdx42pwvaEjqjPvin5qe4Jq4sPFe6LRL73T2kTfMXh/CesN/l9R2/9Ntvv9kvC9+Yw4a4PtXQjAlvdpm65UZIXGbz22hP3C/duHHjj983SevB9+UKRzG0yBG2m3IjJG9051r8mo+6YYjYkR9QDSWxl97Cn0NR0YjyhCfYQXt6/AS89g8T8TV68RPgfUl6MzyMf4ASGV8I8euP+guIjfgHfnXxbYnr3OvquudiaR8IR9CJ4766qEV4498OnSxJMjWjefhHtTpAmhBPLIwRE/ZwohvteognRG76H/TyQhi3fLSrvb2rLj+VJsTBcJS0dIyT7b3xUf6QZfce/dC1HogQuykfEm0fNZpXl59KEw6xhHc0Tg+IdXu+8Ye0b+TQ2ANNuzvWAxDeQGdyd+OScXSzHYu8YtMJ428FCm2TUIiHLN82B/y7kA1hQtpHTSPW4af1EfY8ADD6TYz4OHAIjU89/SyvJyHro3X6aZ1eGggh8VGtnRKO+/LjqY+E2Lz9wCHEpErI+yjjp9JPQfCPkLQb6KNv49fqICQ++r2dJmz/jv8sm582RPi63xYdLYzf0RkPzEM4WigS2iXFPRvwnvVH2TnqhgjvxMGwbvwav2uecTdOHVMjpFeFyVBDAUpHjAYJrznJIqTJ1WxIwejVnQl4k/5b6xPSq8JvEOEb6k+yITHChPSE4m1EeJv6k+wsdYQJY4kFZ8IF6RXbxgh/icfjcL3oB2EslhnJQoTZEYVlhoYI774dHx/vBxH9IbSm91lCpWUUHyL+OIToF+EgRKi0p8CPnGYMQLxahG+BAedqEX676jZ8MHpN1FUifA3OLzaHEOc0wY2lZjyEA2JzCG86t69JhM3NaQRCZMQBtV0FrUWoW/G/qk8cbTHC9q5/qvG1HmH7D0KfCX+h1joVCKnLeqJNSGtcnpDS5rd4yxBqr+N1EGpaf+sQst1LmvBuCxH210X4IJrRIi4srmnc+jdevmAKq55R4Ko7aoS3b52oLXLXu/YEtJWrEkcNM99lyw5oUW5UidCc0vfa71UnYS9NqCMaUzS0xrhwYZzxli874v3cVfoZDKGwuY3NvNGyTEDr+PzWH7HC6AH/xolb5RbME2B9OA36og9CJvwdvbywIS9AQjytV2oSIV74FAqjAAljA80xInJSvJ1mQHjXIAnJs7K/Ocxy1ynaR4FRMkhCa3fS+Ci8bCjuIpKQYcI/sAWhTXlBElLfOnDnm7X0S+//iY/1K+vPP3+3N5gCgS5QQrI7kdEmlY2+Bo6rCNqZGCxhEvpujAeWi0LbTFQ0AAXyYAljSWj3+xgJ3pvAQQUtwLeHBEsYSwL3Iydi+BbHxu7GnodTsaAJY7ER3lMH+JeqSwNOu2OCJ9QZ52lfpVeb673hfGreefdPGIS6MoMJrEHGtzKJOjToOoUdEmGA+kHorR+EYesHobd+ENalZHZ+kmg+29B94NEk5J9S0sjTCiJJKD6GRXEOl1YkCcUaS5x+kVYUCacFwEb8NIqE0J3FK3W/WgQJyWzOYyT8m9pSA6VoECZT2WmrQMB18HK6zVB6Gf06Rw5nprNK20UiQbhhTjOeZg3ILLkderYNaRb/fmpYMYMOFxUsGgVC+zEEC3aVj01oG1FXr71tW/4rMSNASH8BrKV3xIS6Ed9BJ0jftRQ+IQhom5AxIi1ZK4ZOCD8pY6mN1jZ4jqQVwyaEAd+3sXrfAGLIhJaLflheIj8+Pj9Lc4Tps3MSF7WlJx/Ij1KOGi6hBbjdlm47Ozcgt7faeD6TcXZr28R71rnTqYQYKmHKBjQp2mbPZkE+cvSljmfIQpSoOUIlnGIAZdSJRRCnok2YUQZse8kjeudvYRIOKgPaRuz8C13svWM7VC9Fq95U+qJgRJToFL3fJFRC/G3oi3UY8Rm6VOLLvkMlxMX8e6fh09mIO3+jSyVK/3DjIR4uVAiREXfwlRLvES4hdtMtFcKXak4aCOH05OkkHJpxyF9WNeLOr+hCmUnGAAjRwu4kFLk8CNNp6EDkCK1tQsCogGv2LQBEh1vc2tpabBMoDTf9iC5ciASh/XCKST48k/vlAb7ZZVIUbi/PpgXCTk26pU0nTFJbSIqsGZN4oDkXTJhepmcu3nFebLjpE4cPLShCevcVs0mG6o1Jq3Q64wFn+aJ+e5Yj7HxJDg15Zabg3eoNE7pomufTtnkTzj4Wrno8yxHaBZSkgiPUTowPnV6aEMYZEVBH5Dvix6gRUlvW9N5IPeZTKC3S8KQMldq9rMeIfhEyD7ih9WaYYqT3RAmAi9YnsZFKpOxnui6mWUJFxGG/CIcd3qC9qx2CXxJDIZmR6mVfn/ooMOHOxyXgFR30HbmYD17KPOKG/QS7hnkX1vkEQGJCe2WCpAyLHKHRGWUZb93s8ouwvevm7Xu83uBHGHFmXAZmndLn6Bg9F4r381lh0ybs7MTp23fhPdkGkId9+UHY3gXIOkb3RrjyxaGQjuQ4olluShM+Iz7iLqsBfhC6ijEjRIiXYdgHjaH01ZrtAAml3j4AQqY3goSik1pT/2ETyr6HHVBcCNnJ7CGWsDNgwqzSe9A90YWQva3gxD9C9ETBotJjI/DjgW+BQwzf0ZnRFBxp0PjPzBLie22sFTeQUE44XEtMldPvj9u7+WbYScSDuYi4CBW+OGejF+qxl5C8je6GO5jwtuN7MyKfr/QCMpLE9vPvogENQwEBMb2FD9o9hdTJWwLhTucT7/eGBD+c3lHQ953xutXFxUIsvn63S6ciaUUC3w/2mO+GOyTcK0tmio5R1vs1tWHagHTZz89C2av2zxPJWDJhLRJbJxLA/0l/fx+nFfXdnBJf6vCd6oEnSfoCYaLNLg/npuzPwioQSd5drwHr+wI4aK+do4wqf5L6nZ/EOAOvss5iB1F1KX/5A1JyY8H7tU3hmZppu0TkJ6KswYaWXWVhE/5dF15R9WkDtDKDI5BS7O1a9mxb1tpFyq+u2UWwJaH8JdOJ2kAWfFtQHnfX1Cua8ITxkOkV3j4E8YydbNumNmdgwP+hIyvBfpsbLNt9i3xzcDr0DigTF23GbTozIOMMnk9V/bqRpsiaNgRWLogPCoSGHbfO3394f77Fbq7hxpkQeESRSW/In3DUgFdm0khtACAJFcB3A4WhpFEawDd4JtwIAb3kCBWzr+YpOegQg3odhhonWRkpng+W32UalhzChSegFSzCBvASdlJh4cLDRw03/RAxN3XQkFI3pOtCEg+j7qZzKk7KABI3nfN+kzCVUXFSDpC4aeDf/qkkUjrLeCkPSGqnaBNaKas3YqcDYMS91K6cyf0xQg5DG3DHEFf9RiSpcdYUhZhOL55vLwk7LwjgTuevfy399eSZDmkDqs0KhiH7USfLZ8tk9uJ8kTEk4ntGKt7HT57ZgAF/jXI9SoJTA9S6KeKD1wnhp7VETeADa6yOiTsgPCvaChY0BD52yCwZrQDxDDwDfKBQJOXgqFRsAF20VSxoiEa0ffYjXykxR1ukDxIl8U2VfdlMLEUeB7YkmPAkFctk8T7A05YC1JWaXzjJ4gSM5HIfd5CICcnh7MnCfAOTnlEQrqkeP0HCYTLqdZKK6C8Ts9Vqbukq6K7Sq2RCeEEy4lWSqsTVusjXEKriF84Vv2a6FZQ6sRd4G1oRU9T/AXv5Xlan1O01AAAAAElFTkSuQmCC;" vertex="1" parent="1">
          <mxGeometry x="335" y="203" width="83" height="83" as="geometry" />
        </mxCell>
      </root>
    </mxGraphModel>
  </diagram>
</mxfile>
